# xmcd
#
# Track frame offsets:
#	150
#	18488
#	40711
#	58509
#	77792
#	95530
#	113020
#	132978
#	148173
#	167996
#	186484
#	203539
#	222094
#	243199
#	258364
#	273042
#	291560
#
# Disc length: 4123 seconds
#
# Revision: 1
# Processed by: cddbd v1.5.2PL0 Copyright (c) Steve Scherf et al.
# Submitted via: audiograbber 1.83.01
#
DISCID=f8101911
DTITLE=Taylor Swift - Fearless (International Edition)
DYEAR=2009
DGENRE=Country
TTITLE0=Fearless
TTITLE1=Fifteen
TTITLE2=Love Story
TTITLE3=Hey Stephen
TTITLE4=White Horse
TTITLE5=You Belong With Me
TTITLE6=Breathe (Feat. Colbie Caillat)
TTITLE7=Tell Me Why
TTITLE8=You're Not Sorry
TTITLE9=The Way I Loved You
TTITLE10=Forever and Always
TTITLE11=The Best Day
TTITLE12=Change
TTITLE13=Our Song
TTITLE14=Teardrops On My Guitar
TTITLE15=Should've Said No
TTITLE16=Love Story (US Pop Mix)
EXTD=
EXTT0=
EXTT1=
EXTT2=
EXTT3=
EXTT4=
EXTT5=
EXTT6=
EXTT7=
EXTT8=
EXTT9=
EXTT10=
EXTT11=
EXTT12=
EXTT13=
EXTT14=
EXTT15=
EXTT16=
PLAYORDER=
